<?xml version="1.0" encoding="UTF-8" standalone="no"?>
<!-- Created with Inkscape (http://www.inkscape.org/) -->

<svg
   version="1.1"
   id="svg2"
   width="588.47998"
   height="456"
   viewBox="0 0 588.47998 456"
   sodipodi:docname="bat-seeklogo.ai"
   xmlns:inkscape="http://www.inkscape.org/namespaces/inkscape"
   xmlns:sodipodi="http://sodipodi.sourceforge.net/DTD/sodipodi-0.dtd"
   xmlns="http://www.w3.org/2000/svg"
   xmlns:svg="http://www.w3.org/2000/svg">
  <defs
     id="defs6">
    <clipPath
       clipPathUnits="userSpaceOnUse"
       id="clipPath20">
      <path
         d="M 0,342 H 441.36 V 0 H 0 Z"
         id="path18" />
    </clipPath>
  </defs>
  <sodipodi:namedview
     id="namedview4"
     pagecolor="#ffffff"
     bordercolor="#000000"
     borderopacity="0.25"
     inkscape:showpageshadow="2"
     inkscape:pageopacity="0.0"
     inkscape:pagecheckerboard="0"
     inkscape:deskcolor="#d1d1d1" />
  <g
     id="g8"
     inkscape:groupmode="layer"
     inkscape:label="bat-seeklogo"
     transform="matrix(1.3333333,0,0,-1.3333333,0,456)">
    <g
       id="g10"
       transform="translate(320.8926,223.6909)">
      <path
         d="m 0,0 -6.258,-3.402 -6.137,-3.463 -6.015,-3.646 -5.224,-3.402 -5.102,-3.584 -4.923,-3.828 -3.949,-3.463 -3.827,-3.645 -3.646,-3.828 -2.673,-3.219 -2.551,-3.342 -2.613,-3.341 -3.098,-3.949 -3.221,-3.949 -2.673,-2.977 -2.735,-2.916 -2.245,-2.004 -2.492,-1.883 -2.066,-1.216 -2.126,-1.033 -1.762,-0.73 -1.823,-0.607 -2.977,-0.668 -2.549,-0.303 -2.311,0.061 -1.154,0.181 -1.092,0.304 -1.035,0.487 -0.972,0.607 -0.852,0.849 -0.665,0.973 -0.487,1.033 -0.365,1.153 -0.12,1.156 v 1.154 l 0.242,1.154 0.366,1.154 0.545,1.033 0.546,1.033 1.52,1.822 -1.458,-0.242 -1.397,-0.425 -1.215,-0.608 -1.156,-0.728 -1.093,-0.912 -0.912,-1.094 -4.372,0.061 -4.377,0.242 -1.761,1.703 -1.092,0.728 -1.155,0.547 -1.215,0.425 -1.215,0.244 1.397,-2.066 0.548,-1.094 0.425,-1.094 0.182,-1.154 0.121,-1.154 -0.062,-1.154 -0.181,-1.094 -0.364,-1.094 -0.546,-1.032 -0.731,-0.912 -0.85,-0.728 -1.032,-0.608 -1.095,-0.487 -1.214,-0.241 -1.276,-0.122 -2.368,0.122 -2.918,0.484 -1.944,0.548 -1.944,0.607 -2.49,1.033 -2.431,1.276 -2.005,1.276 -1.944,1.457 -1.823,1.58 -2.733,2.795 -2.552,2.915 -2.551,3.282 -2.431,3.401 -2.856,3.707 -2.916,3.646 -3.766,4.374 -3.887,4.131 -3.404,3.28 -3.523,3.159 -3.705,3.098 -4.496,3.464 -4.678,3.279 -4.862,3.16 -5.466,3.342 -5.712,3.16 -5.772,3.037 -6.074,2.916 -6.077,2.734 -6.316,2.552 6.257,-5.894 2.977,-2.977 2.855,-3.038 1.579,-2.003 1.519,-2.067 1.336,-2.187 0.972,-1.944 0.851,-2.006 0.669,-2.064 0.485,-2.005 0.303,-2.005 0.124,-2.006 -0.124,-2.064 -0.303,-2.006 -0.547,-1.945 -0.728,-1.882 -0.911,-1.761 -1.095,-1.702 -1.275,-1.519 -1.397,-1.397 -1.519,-1.276 2.795,-0.912 2.672,-1.153 2.492,-1.519 1.761,-1.275 1.64,-1.46 1.519,-1.64 1.398,-1.7 1.215,-1.884 1.032,-1.883 0.912,-2.064 0.668,-2.127 0.486,-2.128 0.244,-2.248 0.06,-2.248 -0.06,-2.188 -0.366,-2.854 -0.607,-2.733 -0.85,-2.734 3.219,0.546 3.342,0.365 3.281,0.12 3.342,-0.059 3.281,-0.244 3.218,-0.487 3.221,-0.667 3.159,-0.85 3.098,-1.094 2.976,-1.215 2.978,-1.458 2.855,-1.58 2.734,-1.762 2.673,-1.943 2.493,-2.066 2.428,-2.248 2.309,-2.43 2.127,-2.552 1.944,-2.673 1.7,-2.794 1.519,-2.917 1.216,-3.038 1.094,-3.099 0.789,-3.159 0.608,-3.159 0.667,2.431 0.79,2.43 0.851,2.248 1.033,2.187 0.972,1.762 1.154,1.702 1.154,1.274 1.338,1.094 1.337,0.79 1.458,0.546 1.578,0.244 h 1.581 l 1.578,-0.304 1.46,-0.546 1.396,-0.851 1.154,-1.095 0.911,-1.215 0.669,-1.395 0.546,-1.52 0.244,-1.64 1.093,1.154 1.277,0.911 1.396,0.669 1.458,0.363 1.519,0.122 1.457,-0.122 1.461,-0.363 1.396,-0.608 1.397,-0.91 1.214,-1.156 0.124,1.459 0.424,1.457 0.668,1.337 0.911,1.216 1.094,1.032 1.213,0.85 1.339,0.669 1.458,0.425 1.519,0.183 1.457,-0.122 1.459,-0.304 1.337,-0.546 1.276,-0.851 1.153,-0.973 1.033,-1.214 0.972,-1.277 0.912,-1.518 0.789,-1.579 0.668,-1.762 0.608,-1.763 0.974,-3.706 1.214,3.889 1.519,3.766 1.762,3.706 2.004,3.524 1.761,2.674 1.945,2.611 2.067,2.431 2.188,2.37 2.368,2.187 2.43,2.003 2.612,1.885 2.734,1.7 2.793,1.52 2.918,1.397 2.977,1.215 3.039,0.972 3.158,0.85 3.16,0.668 3.219,0.426 3.158,0.243 3.222,0.061 3.158,-0.183 3.219,-0.303 3.161,-0.548 -0.85,2.796 -0.55,2.855 -0.302,2.917 v 2.916 l 0.302,2.855 0.608,2.794 0.669,2.066 0.911,2.005 1.035,1.944 1.214,1.823 1.82,2.248 2.067,2.005 2.309,1.822 2.432,1.518 2.61,1.216 2.796,0.971 -1.703,1.337 -1.519,1.58 -1.335,1.762 -1.092,1.943 -0.913,2.006 -0.606,2.127 -0.365,2.125 -0.122,2.188 0.059,2.187 0.305,2.126 0.547,2.126 0.668,2.066 0.849,2.005 0.974,1.945 1.093,1.882 2.006,2.977 2.247,2.796 2.673,2.855 2.734,2.794 5.834,5.649 -9.783,-4.92 z"
         style="fill:#000000;fill-opacity:1;fill-rule:nonzero;stroke:none"
         id="path12" />
    </g>
    <g
       id="g14">
      <g
         id="g16"
         clip-path="url(#clipPath20)">
        <g
           id="g22"
           transform="translate(342.376,231.6685)">
          <path
             d="m 0,0 -5.834,-5.65 -2.681,-2.741 -2.554,-2.73 -2.106,-2.619 -1.886,-2.798 -1,-1.723 -0.893,-1.786 -0.767,-1.807 -0.601,-1.862 -0.487,-1.892 -0.259,-1.81 -0.052,-1.903 0.106,-1.908 0.312,-1.813 0.506,-1.775 0.773,-1.701 0.939,-1.669 1.116,-1.472 1.265,-1.317 5.646,-4.433 -7.582,-2.636 -2.323,-1.081 -2.15,-1.342 -2.071,-1.636 -1.84,-1.784 -1.629,-2.013 -1.063,-1.596 -0.927,-1.74 -0.808,-1.777 -0.576,-1.778 -0.544,-2.504 -0.27,-2.552 v -2.619 l 0.274,-2.646 0.498,-2.588 2.15,-7.076 -7.607,1.318 -3.058,0.288 -2.997,0.172 -3.031,-0.055 -2.998,-0.232 -3.032,-0.4 -2.978,-0.63 -3.018,-0.813 -2.87,-0.917 -2.796,-1.142 -2.776,-1.33 -2.656,-1.444 -2.581,-1.605 -2.456,-1.773 -2.299,-1.895 -2.226,-2.056 -2.072,-2.243 -1.969,-2.316 -1.84,-2.473 -1.666,-2.527 -1.906,-3.352 -1.679,-3.533 -1.445,-3.581 -4.137,-13.24 -3.464,13.189 -0.572,1.663 -0.587,1.543 -0.677,1.353 -0.774,1.29 -0.83,1.091 -0.83,0.975 -0.85,0.717 -0.905,0.604 -0.831,0.339 -1.033,0.215 -0.994,0.083 -0.998,-0.12 -0.988,-0.288 -0.92,-0.459 -0.872,-0.61 -0.765,-0.723 -0.61,-0.815 -0.439,-0.876 -0.272,-0.938 -0.599,-7.094 -5.328,5.07 -0.978,0.638 -0.959,0.417 -1.008,0.251 -0.996,0.083 -1.053,-0.084 -0.95,-0.237 -0.913,-0.437 -0.851,-0.607 -4.928,-5.209 -1.063,7.156 -0.401,1.117 -0.485,1.011 -0.599,0.798 -0.76,0.722 -0.907,0.553 -0.982,0.367 -1.076,0.207 h -1.09 l -1.074,-0.166 -0.947,-0.355 -0.935,-0.552 -1.007,-0.824 -0.876,-0.966 -0.968,-1.43 -0.867,-1.568 -0.945,-2.003 -0.787,-2.078 -0.748,-2.304 -0.651,-2.367 -2.427,-8.297 -2.037,5.564 c -0.719,1.962 -1.278,3.979 -1.672,6.03 l -0.738,2.954 -1.031,2.916 -1.14,2.851 -1.41,2.707 -1.59,2.614 -1.82,2.502 -2.007,2.409 -2.183,2.296 -2.304,2.134 -2.362,1.957 -2.536,1.843 -2.586,1.667 -2.709,1.5 -2.826,1.384 -2.825,1.152 -2.931,1.034 -2.972,0.801 -3.063,0.635 -3.035,0.459 -3.094,0.229 -3.183,0.057 -3.101,-0.114 -3.157,-0.344 -7.709,-1.308 2.192,7.051 0.554,2.492 0.331,2.582 0.054,1.97 -0.055,2.055 -0.213,1.967 -0.424,1.855 -0.586,1.867 -0.798,1.807 -0.925,1.687 -1.071,1.661 -1.24,1.508 -1.369,1.477 -1.429,1.272 -1.555,1.125 -2.225,1.357 -2.368,1.023 -7.545,2.46 5.351,4.497 1.222,1.221 1.078,1.285 0.926,1.438 0.778,1.505 0.623,1.611 0.463,1.645 0.258,1.703 0.105,1.763 -0.105,1.708 -0.266,1.756 -0.431,1.779 -0.596,1.842 -0.767,1.809 -0.879,1.756 -1.21,1.981 -1.447,1.968 -1.443,1.829 -2.772,2.95 -2.915,2.913 -6.195,5.833 -5.529,5.477 2.289,-0.204 c 4.15,-0.37 8.222,-1.352 12.084,-2.913 l 0.593,-0.24 6.077,-2.734 6.233,-2.993 5.772,-3.037 5.87,-3.25 5.467,-3.343 4.927,-3.201 4.865,-3.411 4.585,-3.535 3.705,-3.098 3.672,-3.294 3.454,-3.328 4.02,-4.275 3.831,-4.454 2.916,-3.646 2.95,-3.829 2.396,-3.354 2.466,-3.172 2.446,-2.793 2.595,-2.655 1.658,-1.436 1.775,-1.333 1.814,-1.153 2.211,-1.161 2.253,-0.935 1.821,-0.569 1.715,-0.48 2.605,-0.434 1.998,-0.102 0.924,0.087 0.761,0.153 0.657,0.292 0.675,0.397 0.456,0.391 0.396,0.493 0.309,0.584 0.219,0.659 0.119,0.717 0.041,0.769 -0.09,0.858 -0.123,0.779 -0.265,0.683 -0.405,0.809 -5.182,7.664 8.218,-1.647 1.543,-0.54 1.479,-0.7 1.48,-0.987 1.183,-1.143 3.26,-0.181 2.954,-0.042 0.207,0.25 1.438,1.199 1.435,0.903 1.555,0.779 1.806,0.549 9.208,1.528 -6.241,-7.483 -0.832,-1.574 -0.245,-0.775 -0.152,-0.725 v -0.711 l 0.074,-0.719 0.221,-0.694 0.308,-0.656 0.387,-0.565 0.434,-0.433 0.553,-0.345 0.666,-0.314 0.702,-0.195 0.808,-0.127 1.921,-0.051 2.198,0.262 2.694,0.604 1.592,0.532 1.59,0.657 1.947,0.946 1.827,1.075 2.267,1.713 2.065,1.844 2.647,2.823 2.587,2.881 3.179,3.897 5.675,7.246 2.602,3.404 2.735,3.295 3.811,3.996 3.913,3.725 4.013,3.518 5.1,3.962 5.103,3.584 5.306,3.457 6.094,3.695 6.212,3.509 6.298,3.423 9.755,5.122 3.911,1.967 c 3.91,1.967 8.154,3.184 12.512,3.588 L 5.417,5.395 Z M 5.55,10.417 C 5.506,10.418 5.462,10.419 5.419,10.419 5.36,10.419 5.301,10.418 5.242,10.416 5.124,10.412 5.006,10.404 4.89,10.392 L 2.87,10.205 C -2.133,9.741 -6.946,8.361 -11.436,6.103 l -3.911,-1.967 c -0.026,-0.013 -0.052,-0.027 -0.078,-0.041 l -9.755,-5.121 c -0.021,-0.012 -0.042,-0.023 -0.063,-0.035 l -6.298,-3.423 c -0.024,-0.013 -0.048,-0.026 -0.071,-0.039 l -6.212,-3.509 c -0.045,-0.025 -0.09,-0.051 -0.134,-0.078 l -6.095,-3.695 c -0.047,-0.028 -0.093,-0.057 -0.138,-0.087 l -5.306,-3.458 c -0.049,-0.031 -0.097,-0.064 -0.145,-0.097 l -5.103,-3.584 c -0.066,-0.047 -0.131,-0.095 -0.195,-0.144 l -5.1,-3.963 c -0.078,-0.061 -0.155,-0.124 -0.23,-0.19 l -4.012,-3.517 c -0.051,-0.045 -0.102,-0.092 -0.151,-0.138 l -3.914,-3.725 c -0.058,-0.056 -0.116,-0.113 -0.173,-0.172 l -3.81,-3.997 c -0.08,-0.083 -0.156,-0.169 -0.23,-0.258 l -2.735,-3.294 c -0.043,-0.052 -0.085,-0.105 -0.126,-0.159 l -2.584,-3.38 -5.626,-7.183 -3.072,-3.767 -2.471,-2.752 -2.458,-2.621 -1.744,-1.558 -1.873,-1.415 -1.405,-0.827 -1.63,-0.792 -1.288,-0.533 -1.184,-0.394 -2.194,-0.492 -1.58,-0.189 -0.432,0.011 0.015,0.027 5.835,6.998 c 0.769,0.882 1.236,2.037 1.236,3.299 0,2.711 -2.145,4.921 -4.831,5.021 -0.064,0.003 -0.13,0.004 -0.195,0.004 -0.09,0 -0.181,-0.002 -0.273,-0.007 -0.219,-0.012 -0.434,-0.038 -0.644,-0.076 l -9.115,-1.513 c -0.216,-0.036 -0.431,-0.086 -0.641,-0.15 l -1.806,-0.55 c -0.27,-0.082 -0.533,-0.187 -0.785,-0.314 l -1.555,-0.778 c -0.145,-0.073 -0.288,-0.153 -0.426,-0.24 l -1.436,-0.904 c -0.189,-0.119 -0.37,-0.251 -0.542,-0.394 l -0.307,-0.255 -0.9,0.013 -1.295,0.071 c -0.169,0.149 -0.348,0.286 -0.535,0.411 l -1.48,0.986 c -0.203,0.137 -0.417,0.257 -0.639,0.362 l -1.479,0.7 c -0.158,0.075 -0.321,0.142 -0.487,0.2 l -1.543,0.54 c -0.22,0.077 -0.445,0.139 -0.674,0.185 l -8.219,1.647 c -0.329,0.066 -0.66,0.098 -0.987,0.098 -1.66,0 -3.24,-0.824 -4.183,-2.242 -1.129,-1.697 -1.121,-3.909 0.021,-5.597 l 4.999,-7.393 0.032,-0.064 -0.816,0.042 -2.053,0.341 -1.38,0.387 -1.534,0.48 -1.834,0.761 -1.826,0.958 -1.473,0.938 -1.479,1.109 -1.367,1.185 -2.354,2.407 -2.258,2.579 -2.313,2.975 -2.338,3.272 c -0.035,0.049 -0.071,0.098 -0.108,0.146 l -2.949,3.829 c -0.019,0.024 -0.038,0.048 -0.057,0.071 l -2.916,3.646 c -0.038,0.047 -0.076,0.093 -0.115,0.139 l -3.832,4.453 c -0.048,0.056 -0.097,0.112 -0.148,0.165 l -4.019,4.276 c -0.057,0.06 -0.115,0.119 -0.175,0.176 l -3.454,3.329 c -0.043,0.041 -0.087,0.082 -0.131,0.122 l -3.672,3.294 c -0.043,0.039 -0.087,0.077 -0.132,0.114 l -3.705,3.097 c -0.051,0.043 -0.103,0.084 -0.155,0.125 l -4.585,3.535 c -0.06,0.046 -0.121,0.091 -0.183,0.134 l -4.865,3.412 c -0.049,0.034 -0.098,0.067 -0.148,0.1 l -4.928,3.201 c -0.038,0.025 -0.077,0.049 -0.116,0.073 l -5.466,3.342 c -0.062,0.038 -0.125,0.075 -0.188,0.11 l -5.87,3.249 c -0.031,0.017 -0.062,0.034 -0.093,0.051 l -5.772,3.038 c -0.055,0.028 -0.11,0.056 -0.165,0.083 l -6.233,2.992 c -0.037,0.018 -0.075,0.036 -0.113,0.053 l -6.078,2.734 c -0.058,0.026 -0.117,0.052 -0.178,0.076 l -0.592,0.239 c -4.325,1.749 -8.874,2.847 -13.521,3.261 l -2.29,0.204 c -0.15,0.013 -0.3,0.02 -0.448,0.02 -1.941,0 -3.726,-1.123 -4.555,-2.908 -0.892,-1.921 -0.484,-4.195 1.021,-5.686 l 5.529,-5.477 c 0.029,-0.03 0.06,-0.06 0.091,-0.089 l 6.141,-5.782 2.807,-2.805 2.569,-2.734 1.256,-1.591 1.268,-1.725 0.988,-1.617 0.713,-1.425 0.619,-1.46 0.47,-1.451 0.334,-1.381 0.199,-1.318 0.073,-1.182 -0.073,-1.232 -0.177,-1.169 -0.314,-1.114 -0.439,-1.136 -0.544,-1.052 -0.625,-0.971 -0.732,-0.873 -0.913,-0.912 -5.186,-4.358 c -1.397,-1.174 -2.047,-3.013 -1.7,-4.805 0.348,-1.791 1.64,-3.253 3.375,-3.819 l 7.324,-2.387 1.832,-0.791 1.755,-1.071 1.189,-0.859 1.059,-0.943 1.103,-1.191 0.962,-1.17 0.817,-1.266 0.734,-1.34 0.598,-1.353 0.442,-1.408 0.314,-1.376 0.16,-1.472 0.046,-1.715 -0.043,-1.581 -0.27,-2.105 -0.459,-2.066 -2.131,-6.852 c -0.518,-1.668 -0.133,-3.486 1.017,-4.8 0.963,-1.101 2.346,-1.717 3.781,-1.717 0.28,0 0.561,0.024 0.841,0.071 l 7.562,1.284 2.828,0.308 2.783,0.103 2.906,-0.053 2.761,-0.204 2.712,-0.411 2.785,-0.576 2.644,-0.712 2.636,-0.931 2.555,-1.043 2.56,-1.253 2.451,-1.357 2.327,-1.499 2.293,-1.667 2.132,-1.768 2.086,-1.931 1.96,-2.061 1.795,-2.155 1.601,-2.201 1.396,-2.295 1.217,-2.336 1.009,-2.524 0.917,-2.595 0.648,-2.591 c 0.442,-2.263 1.068,-4.506 1.86,-6.669 l 2.038,-5.566 c 0.727,-1.985 2.615,-3.298 4.717,-3.298 0.056,0 0.112,0.001 0.168,0.003 2.169,0.073 4.046,1.529 4.655,3.612 l 2.428,8.297 c 0.008,0.026 0.015,0.053 0.023,0.08 l 0.619,2.255 0.676,2.081 0.673,1.779 0.792,1.677 0.68,1.231 0.642,0.947 0.385,0.425 0.421,0.344 0.226,0.134 0.05,0.019 0.182,0.028 h 0.224 l 0.189,-0.037 0.14,-0.052 0.044,-0.027 0.065,-0.061 0.048,-0.064 0.16,-0.334 0.146,-0.407 0.991,-6.664 c 0.282,-1.901 1.626,-3.476 3.461,-4.053 0.495,-0.156 1.004,-0.232 1.508,-0.232 1.359,0 2.686,0.552 3.65,1.571 l 4.593,4.855 0.1,0.071 0.06,0.028 0.053,0.014 0.23,0.018 0.184,-0.015 0.208,-0.052 0.188,-0.082 0.24,-0.156 4.994,-4.752 c 0.951,-0.905 2.198,-1.385 3.464,-1.385 0.6,0 1.204,0.108 1.784,0.327 1.807,0.687 3.06,2.349 3.222,4.275 l 0.557,6.593 0.006,0.02 0.033,0.066 0.081,0.108 0.185,0.176 0.267,0.186 0.182,0.091 0.158,0.046 0.08,0.01 0.178,-0.015 0.248,-0.052 0.223,-0.148 0.314,-0.265 0.472,-0.556 0.581,-0.762 0.532,-0.886 0.476,-0.955 0.47,-1.235 0.485,-1.408 3.416,-13.008 c 0.57,-2.167 2.504,-3.695 4.745,-3.747 0.039,-10e-4 0.078,-10e-4 0.116,-10e-4 2.193,0 4.139,1.424 4.795,3.526 l 4.076,13.048 1.312,3.252 1.536,3.23 1.733,3.048 1.496,2.269 1.657,2.227 1.797,2.114 1.867,2.021 1.975,1.824 2.065,1.702 2.186,1.578 2.309,1.435 2.415,1.313 2.525,1.21 2.476,1.011 2.572,0.822 2.774,0.747 2.653,0.562 2.706,0.357 2.714,0.209 2.692,0.051 2.715,-0.157 2.774,-0.262 7.414,-1.283 c 0.286,-0.05 0.573,-0.074 0.858,-0.074 1.426,0 2.802,0.608 3.764,1.697 1.156,1.307 1.55,3.119 1.043,4.787 l -2.073,6.825 -0.407,2.114 -0.225,2.17 v 2.094 l 0.214,2.018 0.434,1.993 0.411,1.269 0.625,1.375 0.735,1.382 0.797,1.196 1.293,1.597 1.439,1.396 1.652,1.305 1.653,1.031 1.815,0.845 7.34,2.552 c 1.736,0.603 3.003,2.106 3.306,3.918 0.304,1.812 -0.407,3.645 -1.852,4.779 l -5.37,4.217 -0.818,0.851 -0.731,0.966 -0.665,1.181 -0.529,1.164 -0.329,1.154 -0.217,1.264 -0.079,1.411 0.038,1.405 0.18,1.252 0.38,1.479 0.485,1.502 0.619,1.458 0.753,1.507 0.837,1.441 1.674,2.482 1.855,2.308 2.386,2.552 2.595,2.653 5.785,5.601 c 0.017,0.017 0.033,0.033 0.05,0.049 l 5.351,5.33 c 0.955,0.914 1.548,2.201 1.548,3.626 0,2.731 -2.178,4.955 -4.894,5.022"
             style="fill:#dce357;fill-opacity:1;fill-rule:nonzero;stroke:none"
             id="path24" />
        </g>
      </g>
    </g>
  </g>
</svg>
